<mxfile host="app.diagrams.net" modified="2020-12-17T21:15:23.303Z" agent="5.0 (Windows NT 10.0; Win64; x64) AppleWebKit/537.36 (KHTML, like Gecko) Chrome/87.0.4280.88 Safari/537.36" etag="ZyJwDBSZhNQ9T93Jnzjo" version="14.0.4" type="github">
  <diagram name="Page-1" id="12e1b939-464a-85fe-373e-61e167be1490">
    <mxGraphModel dx="942" dy="1796" grid="1" gridSize="10" guides="1" tooltips="1" connect="1" arrows="1" fold="1" page="1" pageScale="1.5" pageWidth="1169" pageHeight="826" background="#ffffff" math="0" shadow="0">
      <root>
        <mxCell id="0" />
        <mxCell id="1" parent="0" />
        <mxCell id="CKZHbkeZ0Yq8w7-7omY6-2" value="" style="rounded=0;whiteSpace=wrap;html=1;" vertex="1" parent="1">
          <mxGeometry x="360" y="-1180" width="120" height="230" as="geometry" />
        </mxCell>
        <mxCell id="CKZHbkeZ0Yq8w7-7omY6-9" value="index" style="rounded=0;whiteSpace=wrap;html=1;" vertex="1" parent="1">
          <mxGeometry x="375" y="-1160" width="90" height="30" as="geometry" />
        </mxCell>
        <mxCell id="CKZHbkeZ0Yq8w7-7omY6-10" value="Data" style="rounded=0;whiteSpace=wrap;html=1;" vertex="1" parent="1">
          <mxGeometry x="375" y="-1000" width="90" height="30" as="geometry" />
        </mxCell>
        <mxCell id="CKZHbkeZ0Yq8w7-7omY6-11" value="Timestamp" style="rounded=0;whiteSpace=wrap;html=1;" vertex="1" parent="1">
          <mxGeometry x="375" y="-1120" width="90" height="30" as="geometry" />
        </mxCell>
        <mxCell id="CKZHbkeZ0Yq8w7-7omY6-12" value="Previous Hash" style="rounded=0;whiteSpace=wrap;html=1;" vertex="1" parent="1">
          <mxGeometry x="375" y="-1080" width="90" height="30" as="geometry" />
        </mxCell>
        <mxCell id="CKZHbkeZ0Yq8w7-7omY6-13" value="Hash" style="rounded=0;whiteSpace=wrap;html=1;" vertex="1" parent="1">
          <mxGeometry x="375" y="-1040" width="90" height="30" as="geometry" />
        </mxCell>
        <mxCell id="CKZHbkeZ0Yq8w7-7omY6-65" value="" style="rounded=0;whiteSpace=wrap;html=1;" vertex="1" parent="1">
          <mxGeometry x="600" y="-1180" width="120" height="230" as="geometry" />
        </mxCell>
        <mxCell id="CKZHbkeZ0Yq8w7-7omY6-66" value="&lt;span&gt;index&lt;/span&gt;" style="rounded=0;whiteSpace=wrap;html=1;" vertex="1" parent="1">
          <mxGeometry x="615" y="-1160" width="90" height="30" as="geometry" />
        </mxCell>
        <mxCell id="CKZHbkeZ0Yq8w7-7omY6-67" value="&lt;span&gt;Data&lt;/span&gt;" style="rounded=0;whiteSpace=wrap;html=1;" vertex="1" parent="1">
          <mxGeometry x="615" y="-1000" width="90" height="30" as="geometry" />
        </mxCell>
        <mxCell id="CKZHbkeZ0Yq8w7-7omY6-68" value="&lt;span&gt;Timestamp&lt;/span&gt;" style="rounded=0;whiteSpace=wrap;html=1;" vertex="1" parent="1">
          <mxGeometry x="615" y="-1120" width="90" height="30" as="geometry" />
        </mxCell>
        <mxCell id="CKZHbkeZ0Yq8w7-7omY6-69" value="&lt;span&gt;Previous Hash&lt;/span&gt;" style="rounded=0;whiteSpace=wrap;html=1;" vertex="1" parent="1">
          <mxGeometry x="615" y="-1080" width="90" height="30" as="geometry" />
        </mxCell>
        <mxCell id="CKZHbkeZ0Yq8w7-7omY6-70" value="Hash" style="rounded=0;whiteSpace=wrap;html=1;" vertex="1" parent="1">
          <mxGeometry x="615" y="-1040" width="90" height="30" as="geometry" />
        </mxCell>
        <mxCell id="CKZHbkeZ0Yq8w7-7omY6-71" value="" style="rounded=0;whiteSpace=wrap;html=1;" vertex="1" parent="1">
          <mxGeometry x="840" y="-1180" width="120" height="230" as="geometry" />
        </mxCell>
        <mxCell id="CKZHbkeZ0Yq8w7-7omY6-72" value="&lt;span&gt;index&lt;/span&gt;" style="rounded=0;whiteSpace=wrap;html=1;" vertex="1" parent="1">
          <mxGeometry x="855" y="-1160" width="90" height="30" as="geometry" />
        </mxCell>
        <mxCell id="CKZHbkeZ0Yq8w7-7omY6-73" value="&lt;span&gt;Data&lt;/span&gt;" style="rounded=0;whiteSpace=wrap;html=1;" vertex="1" parent="1">
          <mxGeometry x="855" y="-1000" width="90" height="30" as="geometry" />
        </mxCell>
        <mxCell id="CKZHbkeZ0Yq8w7-7omY6-74" value="&lt;span&gt;Timestamp&lt;/span&gt;" style="rounded=0;whiteSpace=wrap;html=1;" vertex="1" parent="1">
          <mxGeometry x="855" y="-1120" width="90" height="30" as="geometry" />
        </mxCell>
        <mxCell id="CKZHbkeZ0Yq8w7-7omY6-75" value="&lt;span&gt;Previous Hash&lt;/span&gt;" style="rounded=0;whiteSpace=wrap;html=1;" vertex="1" parent="1">
          <mxGeometry x="855" y="-1080" width="90" height="30" as="geometry" />
        </mxCell>
        <mxCell id="CKZHbkeZ0Yq8w7-7omY6-76" value="Hash" style="rounded=0;whiteSpace=wrap;html=1;" vertex="1" parent="1">
          <mxGeometry x="855" y="-1040" width="90" height="30" as="geometry" />
        </mxCell>
        <mxCell id="CKZHbkeZ0Yq8w7-7omY6-77" value="" style="rounded=0;whiteSpace=wrap;html=1;" vertex="1" parent="1">
          <mxGeometry x="1080" y="-1180" width="120" height="230" as="geometry" />
        </mxCell>
        <mxCell id="CKZHbkeZ0Yq8w7-7omY6-78" value="&lt;span&gt;index&lt;/span&gt;" style="rounded=0;whiteSpace=wrap;html=1;" vertex="1" parent="1">
          <mxGeometry x="1095" y="-1160" width="90" height="30" as="geometry" />
        </mxCell>
        <mxCell id="CKZHbkeZ0Yq8w7-7omY6-79" value="&lt;span&gt;Data&lt;/span&gt;" style="rounded=0;whiteSpace=wrap;html=1;" vertex="1" parent="1">
          <mxGeometry x="1095" y="-1000" width="90" height="30" as="geometry" />
        </mxCell>
        <mxCell id="CKZHbkeZ0Yq8w7-7omY6-80" value="&lt;span&gt;Timestamp&lt;/span&gt;" style="rounded=0;whiteSpace=wrap;html=1;" vertex="1" parent="1">
          <mxGeometry x="1095" y="-1120" width="90" height="30" as="geometry" />
        </mxCell>
        <mxCell id="CKZHbkeZ0Yq8w7-7omY6-81" value="&lt;span&gt;Previous Hash&lt;/span&gt;" style="rounded=0;whiteSpace=wrap;html=1;" vertex="1" parent="1">
          <mxGeometry x="1095" y="-1080" width="90" height="30" as="geometry" />
        </mxCell>
        <mxCell id="CKZHbkeZ0Yq8w7-7omY6-82" value="Hash" style="rounded=0;whiteSpace=wrap;html=1;" vertex="1" parent="1">
          <mxGeometry x="1095" y="-1040" width="90" height="30" as="geometry" />
        </mxCell>
        <mxCell id="CKZHbkeZ0Yq8w7-7omY6-84" value="" style="endArrow=classic;html=1;entryX=1;entryY=0.5;entryDx=0;entryDy=0;exitX=0;exitY=0.5;exitDx=0;exitDy=0;" edge="1" parent="1" source="CKZHbkeZ0Yq8w7-7omY6-69" target="CKZHbkeZ0Yq8w7-7omY6-13">
          <mxGeometry width="50" height="50" relative="1" as="geometry">
            <mxPoint x="780" y="-1180" as="sourcePoint" />
            <mxPoint x="830" y="-1230" as="targetPoint" />
            <Array as="points">
              <mxPoint x="560" y="-1030" />
            </Array>
          </mxGeometry>
        </mxCell>
        <mxCell id="CKZHbkeZ0Yq8w7-7omY6-85" value="" style="endArrow=classic;html=1;entryX=1;entryY=0.5;entryDx=0;entryDy=0;exitX=0;exitY=0.5;exitDx=0;exitDy=0;" edge="1" parent="1" source="CKZHbkeZ0Yq8w7-7omY6-75" target="CKZHbkeZ0Yq8w7-7omY6-70">
          <mxGeometry width="50" height="50" relative="1" as="geometry">
            <mxPoint x="625" y="-1055" as="sourcePoint" />
            <mxPoint x="475" y="-1015" as="targetPoint" />
            <Array as="points">
              <mxPoint x="810" y="-1025" />
            </Array>
          </mxGeometry>
        </mxCell>
        <mxCell id="CKZHbkeZ0Yq8w7-7omY6-86" value="" style="endArrow=classic;html=1;entryX=1;entryY=0.5;entryDx=0;entryDy=0;exitX=0;exitY=0.5;exitDx=0;exitDy=0;" edge="1" parent="1" source="CKZHbkeZ0Yq8w7-7omY6-81" target="CKZHbkeZ0Yq8w7-7omY6-76">
          <mxGeometry width="50" height="50" relative="1" as="geometry">
            <mxPoint x="780" y="-1180" as="sourcePoint" />
            <mxPoint x="830" y="-1230" as="targetPoint" />
            <Array as="points">
              <mxPoint x="1040" y="-1025" />
            </Array>
          </mxGeometry>
        </mxCell>
        <mxCell id="CKZHbkeZ0Yq8w7-7omY6-87" value="Block 0 - Genesis Block" style="text;html=1;align=center;verticalAlign=middle;resizable=0;points=[];autosize=1;" vertex="1" parent="1">
          <mxGeometry x="350" y="-940" width="140" height="20" as="geometry" />
        </mxCell>
        <mxCell id="CKZHbkeZ0Yq8w7-7omY6-88" value="Block 1" style="text;html=1;align=center;verticalAlign=middle;resizable=0;points=[];autosize=1;" vertex="1" parent="1">
          <mxGeometry x="635" y="-940" width="50" height="20" as="geometry" />
        </mxCell>
        <mxCell id="CKZHbkeZ0Yq8w7-7omY6-89" value="Block 2" style="text;html=1;align=center;verticalAlign=middle;resizable=0;points=[];autosize=1;" vertex="1" parent="1">
          <mxGeometry x="875" y="-940" width="50" height="20" as="geometry" />
        </mxCell>
        <mxCell id="CKZHbkeZ0Yq8w7-7omY6-90" value="Block 3" style="text;html=1;align=center;verticalAlign=middle;resizable=0;points=[];autosize=1;" vertex="1" parent="1">
          <mxGeometry x="1115" y="-940" width="50" height="20" as="geometry" />
        </mxCell>
        <mxCell id="CKZHbkeZ0Yq8w7-7omY6-102" value="" style="aspect=fixed;pointerEvents=1;shadow=0;dashed=0;html=1;strokeColor=none;labelPosition=center;verticalLabelPosition=bottom;verticalAlign=top;align=center;fillColor=#00188D;shape=mxgraph.azure.computer" vertex="1" parent="1">
          <mxGeometry x="395" y="-807.5" width="50" height="45" as="geometry" />
        </mxCell>
        <mxCell id="CKZHbkeZ0Yq8w7-7omY6-103" value="" style="html=1;whiteSpace=wrap;shape=isoCube2;backgroundOutline=1;isoAngle=15;" vertex="1" parent="1">
          <mxGeometry x="580" y="-820" width="60" height="70" as="geometry" />
        </mxCell>
        <mxCell id="CKZHbkeZ0Yq8w7-7omY6-104" value="" style="group" vertex="1" connectable="0" parent="1">
          <mxGeometry x="670" y="-570" width="140" height="100" as="geometry" />
        </mxCell>
        <mxCell id="CKZHbkeZ0Yq8w7-7omY6-91" value="" style="html=1;whiteSpace=wrap;shape=isoCube2;backgroundOutline=1;isoAngle=15;" vertex="1" parent="CKZHbkeZ0Yq8w7-7omY6-104">
          <mxGeometry width="60" height="60" as="geometry" />
        </mxCell>
        <mxCell id="CKZHbkeZ0Yq8w7-7omY6-98" value="" style="html=1;whiteSpace=wrap;shape=isoCube2;backgroundOutline=1;isoAngle=15;" vertex="1" parent="CKZHbkeZ0Yq8w7-7omY6-104">
          <mxGeometry x="20" y="10" width="60" height="60" as="geometry" />
        </mxCell>
        <mxCell id="CKZHbkeZ0Yq8w7-7omY6-99" value="" style="html=1;whiteSpace=wrap;shape=isoCube2;backgroundOutline=1;isoAngle=15;" vertex="1" parent="CKZHbkeZ0Yq8w7-7omY6-104">
          <mxGeometry x="40" y="20" width="60" height="60" as="geometry" />
        </mxCell>
        <mxCell id="CKZHbkeZ0Yq8w7-7omY6-100" value="" style="html=1;whiteSpace=wrap;shape=isoCube2;backgroundOutline=1;isoAngle=15;" vertex="1" parent="CKZHbkeZ0Yq8w7-7omY6-104">
          <mxGeometry x="60" y="30" width="60" height="60" as="geometry" />
        </mxCell>
        <mxCell id="CKZHbkeZ0Yq8w7-7omY6-101" value="" style="html=1;whiteSpace=wrap;shape=isoCube2;backgroundOutline=1;isoAngle=15;" vertex="1" parent="CKZHbkeZ0Yq8w7-7omY6-104">
          <mxGeometry x="80" y="40" width="60" height="60" as="geometry" />
        </mxCell>
        <mxCell id="CKZHbkeZ0Yq8w7-7omY6-105" value="" style="endArrow=none;dashed=1;html=1;dashPattern=1 3;strokeWidth=2;" edge="1" parent="1">
          <mxGeometry width="50" height="50" relative="1" as="geometry">
            <mxPoint x="760" y="-920" as="sourcePoint" />
            <mxPoint x="760" y="-1200" as="targetPoint" />
          </mxGeometry>
        </mxCell>
        <mxCell id="CKZHbkeZ0Yq8w7-7omY6-106" value="" style="endArrow=none;dashed=1;html=1;dashPattern=1 3;strokeWidth=2;" edge="1" parent="1">
          <mxGeometry width="50" height="50" relative="1" as="geometry">
            <mxPoint x="560" y="-925" as="sourcePoint" />
            <mxPoint x="560" y="-1205" as="targetPoint" />
          </mxGeometry>
        </mxCell>
        <mxCell id="CKZHbkeZ0Yq8w7-7omY6-107" value="" style="endArrow=none;dashed=1;html=1;dashPattern=1 3;strokeWidth=2;" edge="1" parent="1">
          <mxGeometry width="50" height="50" relative="1" as="geometry">
            <mxPoint x="560" y="-920" as="sourcePoint" />
            <mxPoint x="760" y="-920" as="targetPoint" />
          </mxGeometry>
        </mxCell>
        <mxCell id="CKZHbkeZ0Yq8w7-7omY6-108" value="" style="endArrow=none;dashed=1;html=1;dashPattern=1 3;strokeWidth=2;" edge="1" parent="1">
          <mxGeometry width="50" height="50" relative="1" as="geometry">
            <mxPoint x="560" y="-1200" as="sourcePoint" />
            <mxPoint x="760" y="-1200" as="targetPoint" />
          </mxGeometry>
        </mxCell>
        <mxCell id="CKZHbkeZ0Yq8w7-7omY6-109" value="" style="endArrow=classic;html=1;" edge="1" parent="1">
          <mxGeometry width="50" height="50" relative="1" as="geometry">
            <mxPoint x="660" y="-920" as="sourcePoint" />
            <mxPoint x="620" y="-820" as="targetPoint" />
          </mxGeometry>
        </mxCell>
        <mxCell id="CKZHbkeZ0Yq8w7-7omY6-122" value="" style="group" vertex="1" connectable="0" parent="1">
          <mxGeometry x="760" y="-900" width="325" height="255" as="geometry" />
        </mxCell>
        <mxCell id="CKZHbkeZ0Yq8w7-7omY6-110" value="" style="aspect=fixed;pointerEvents=1;shadow=0;dashed=0;html=1;strokeColor=none;labelPosition=center;verticalLabelPosition=bottom;verticalAlign=top;align=center;fillColor=#00188D;shape=mxgraph.azure.computer" vertex="1" parent="CKZHbkeZ0Yq8w7-7omY6-122">
          <mxGeometry x="140" y="210" width="50" height="45" as="geometry" />
        </mxCell>
        <mxCell id="CKZHbkeZ0Yq8w7-7omY6-111" value="" style="aspect=fixed;pointerEvents=1;shadow=0;dashed=0;html=1;strokeColor=none;labelPosition=center;verticalLabelPosition=bottom;verticalAlign=top;align=center;fillColor=#00188D;shape=mxgraph.azure.computer" vertex="1" parent="CKZHbkeZ0Yq8w7-7omY6-122">
          <mxGeometry x="275" y="102.5" width="50" height="45" as="geometry" />
        </mxCell>
        <mxCell id="CKZHbkeZ0Yq8w7-7omY6-115" style="edgeStyle=orthogonalEdgeStyle;rounded=0;orthogonalLoop=1;jettySize=auto;html=1;exitX=0.5;exitY=0;exitDx=0;exitDy=0;exitPerimeter=0;" edge="1" parent="CKZHbkeZ0Yq8w7-7omY6-122" source="CKZHbkeZ0Yq8w7-7omY6-112">
          <mxGeometry relative="1" as="geometry">
            <mxPoint x="170" y="10" as="targetPoint" />
          </mxGeometry>
        </mxCell>
        <mxCell id="CKZHbkeZ0Yq8w7-7omY6-112" value="" style="aspect=fixed;pointerEvents=1;shadow=0;dashed=0;html=1;strokeColor=none;labelPosition=center;verticalLabelPosition=bottom;verticalAlign=top;align=center;fillColor=#00188D;shape=mxgraph.azure.computer" vertex="1" parent="CKZHbkeZ0Yq8w7-7omY6-122">
          <mxGeometry x="140" width="50" height="45" as="geometry" />
        </mxCell>
        <mxCell id="CKZHbkeZ0Yq8w7-7omY6-113" value="" style="aspect=fixed;pointerEvents=1;shadow=0;dashed=0;html=1;strokeColor=none;labelPosition=center;verticalLabelPosition=bottom;verticalAlign=top;align=center;fillColor=#00188D;shape=mxgraph.azure.computer" vertex="1" parent="CKZHbkeZ0Yq8w7-7omY6-122">
          <mxGeometry y="102.5" width="50" height="45" as="geometry" />
        </mxCell>
        <mxCell id="CKZHbkeZ0Yq8w7-7omY6-114" value="" style="html=1;whiteSpace=wrap;shape=isoCube2;backgroundOutline=1;isoAngle=15;" vertex="1" parent="CKZHbkeZ0Yq8w7-7omY6-122">
          <mxGeometry x="135" y="90" width="60" height="70" as="geometry" />
        </mxCell>
        <mxCell id="CKZHbkeZ0Yq8w7-7omY6-116" value="" style="shape=singleArrow;direction=west;whiteSpace=wrap;html=1;" vertex="1" parent="CKZHbkeZ0Yq8w7-7omY6-122">
          <mxGeometry x="60" y="108.75" width="70" height="32.5" as="geometry" />
        </mxCell>
        <mxCell id="CKZHbkeZ0Yq8w7-7omY6-117" value="" style="shape=singleArrow;whiteSpace=wrap;html=1;" vertex="1" parent="CKZHbkeZ0Yq8w7-7omY6-122">
          <mxGeometry x="200" y="105" width="70" height="40" as="geometry" />
        </mxCell>
        <mxCell id="CKZHbkeZ0Yq8w7-7omY6-120" value="" style="shape=flexArrow;endArrow=classic;html=1;entryX=0.5;entryY=1;entryDx=0;entryDy=0;entryPerimeter=0;exitX=0.5;exitY=0;exitDx=0;exitDy=0;exitPerimeter=0;" edge="1" parent="CKZHbkeZ0Yq8w7-7omY6-122" source="CKZHbkeZ0Yq8w7-7omY6-114" target="CKZHbkeZ0Yq8w7-7omY6-112">
          <mxGeometry width="50" height="50" relative="1" as="geometry">
            <mxPoint x="-60" y="20" as="sourcePoint" />
            <mxPoint x="-10" y="-30" as="targetPoint" />
          </mxGeometry>
        </mxCell>
        <mxCell id="CKZHbkeZ0Yq8w7-7omY6-121" value="" style="shape=flexArrow;endArrow=classic;html=1;entryX=0.5;entryY=0;entryDx=0;entryDy=0;entryPerimeter=0;exitX=0.5;exitY=1;exitDx=0;exitDy=0;exitPerimeter=0;" edge="1" parent="CKZHbkeZ0Yq8w7-7omY6-122" source="CKZHbkeZ0Yq8w7-7omY6-114" target="CKZHbkeZ0Yq8w7-7omY6-110">
          <mxGeometry width="50" height="50" relative="1" as="geometry">
            <mxPoint x="-60" y="20" as="sourcePoint" />
            <mxPoint x="-10" y="-30" as="targetPoint" />
          </mxGeometry>
        </mxCell>
        <mxCell id="CKZHbkeZ0Yq8w7-7omY6-157" value="&lt;font style=&quot;font-size: 16px&quot;&gt;The block is &lt;br&gt;sent to peers&lt;/font&gt;" style="text;html=1;align=center;verticalAlign=middle;resizable=0;points=[];autosize=1;" vertex="1" parent="CKZHbkeZ0Yq8w7-7omY6-122">
          <mxGeometry x="10" y="170" width="110" height="40" as="geometry" />
        </mxCell>
        <mxCell id="CKZHbkeZ0Yq8w7-7omY6-123" value="" style="group" vertex="1" connectable="0" parent="1">
          <mxGeometry x="255" y="-660" width="355" height="255" as="geometry" />
        </mxCell>
        <mxCell id="CKZHbkeZ0Yq8w7-7omY6-124" value="" style="aspect=fixed;pointerEvents=1;shadow=0;dashed=0;html=1;strokeColor=none;labelPosition=center;verticalLabelPosition=bottom;verticalAlign=top;align=center;fillColor=#00188D;shape=mxgraph.azure.computer" vertex="1" parent="CKZHbkeZ0Yq8w7-7omY6-123">
          <mxGeometry x="140" y="210" width="50" height="45" as="geometry" />
        </mxCell>
        <mxCell id="CKZHbkeZ0Yq8w7-7omY6-125" value="" style="aspect=fixed;pointerEvents=1;shadow=0;dashed=0;html=1;strokeColor=none;labelPosition=center;verticalLabelPosition=bottom;verticalAlign=top;align=center;fillColor=#00188D;shape=mxgraph.azure.computer" vertex="1" parent="CKZHbkeZ0Yq8w7-7omY6-123">
          <mxGeometry x="275" y="102.5" width="50" height="45" as="geometry" />
        </mxCell>
        <mxCell id="CKZHbkeZ0Yq8w7-7omY6-126" style="edgeStyle=orthogonalEdgeStyle;rounded=0;orthogonalLoop=1;jettySize=auto;html=1;exitX=0.5;exitY=0;exitDx=0;exitDy=0;exitPerimeter=0;" edge="1" parent="CKZHbkeZ0Yq8w7-7omY6-123" source="CKZHbkeZ0Yq8w7-7omY6-127">
          <mxGeometry relative="1" as="geometry">
            <mxPoint x="170" y="10" as="targetPoint" />
          </mxGeometry>
        </mxCell>
        <mxCell id="CKZHbkeZ0Yq8w7-7omY6-127" value="" style="aspect=fixed;pointerEvents=1;shadow=0;dashed=0;html=1;strokeColor=none;labelPosition=center;verticalLabelPosition=bottom;verticalAlign=top;align=center;fillColor=#00188D;shape=mxgraph.azure.computer" vertex="1" parent="CKZHbkeZ0Yq8w7-7omY6-123">
          <mxGeometry x="140" y="10" width="50" height="45" as="geometry" />
        </mxCell>
        <mxCell id="CKZHbkeZ0Yq8w7-7omY6-128" value="" style="aspect=fixed;pointerEvents=1;shadow=0;dashed=0;html=1;strokeColor=none;labelPosition=center;verticalLabelPosition=bottom;verticalAlign=top;align=center;fillColor=#00188D;shape=mxgraph.azure.computer" vertex="1" parent="CKZHbkeZ0Yq8w7-7omY6-123">
          <mxGeometry y="102.5" width="50" height="45" as="geometry" />
        </mxCell>
        <mxCell id="CKZHbkeZ0Yq8w7-7omY6-129" value="" style="html=1;whiteSpace=wrap;shape=isoCube2;backgroundOutline=1;isoAngle=15;" vertex="1" parent="CKZHbkeZ0Yq8w7-7omY6-123">
          <mxGeometry x="135" y="90" width="60" height="70" as="geometry" />
        </mxCell>
        <mxCell id="CKZHbkeZ0Yq8w7-7omY6-130" value="" style="shape=singleArrow;direction=west;whiteSpace=wrap;html=1;" vertex="1" parent="CKZHbkeZ0Yq8w7-7omY6-123">
          <mxGeometry x="60" y="108.75" width="70" height="32.5" as="geometry" />
        </mxCell>
        <mxCell id="CKZHbkeZ0Yq8w7-7omY6-131" value="" style="shape=singleArrow;whiteSpace=wrap;html=1;" vertex="1" parent="CKZHbkeZ0Yq8w7-7omY6-123">
          <mxGeometry x="200" y="105" width="70" height="40" as="geometry" />
        </mxCell>
        <mxCell id="CKZHbkeZ0Yq8w7-7omY6-132" value="" style="shape=flexArrow;endArrow=classic;html=1;entryX=0.5;entryY=1;entryDx=0;entryDy=0;entryPerimeter=0;exitX=0.5;exitY=0;exitDx=0;exitDy=0;exitPerimeter=0;" edge="1" parent="CKZHbkeZ0Yq8w7-7omY6-123" source="CKZHbkeZ0Yq8w7-7omY6-129" target="CKZHbkeZ0Yq8w7-7omY6-127">
          <mxGeometry width="50" height="50" relative="1" as="geometry">
            <mxPoint x="-60" y="20" as="sourcePoint" />
            <mxPoint x="-10" y="-30" as="targetPoint" />
          </mxGeometry>
        </mxCell>
        <mxCell id="CKZHbkeZ0Yq8w7-7omY6-133" value="" style="shape=flexArrow;endArrow=classic;html=1;entryX=0.5;entryY=0;entryDx=0;entryDy=0;entryPerimeter=0;exitX=0.5;exitY=1;exitDx=0;exitDy=0;exitPerimeter=0;" edge="1" parent="CKZHbkeZ0Yq8w7-7omY6-123" source="CKZHbkeZ0Yq8w7-7omY6-129" target="CKZHbkeZ0Yq8w7-7omY6-124">
          <mxGeometry width="50" height="50" relative="1" as="geometry">
            <mxPoint x="-60" y="20" as="sourcePoint" />
            <mxPoint x="-10" y="-30" as="targetPoint" />
          </mxGeometry>
        </mxCell>
        <mxCell id="CKZHbkeZ0Yq8w7-7omY6-159" value="&lt;font style=&quot;font-size: 16px&quot;&gt;Consensus and approval&lt;br&gt;&amp;nbsp;by peer network&lt;/font&gt;" style="text;html=1;align=center;verticalAlign=middle;resizable=0;points=[];autosize=1;" vertex="1" parent="CKZHbkeZ0Yq8w7-7omY6-123">
          <mxGeometry x="165" y="165" width="190" height="40" as="geometry" />
        </mxCell>
        <mxCell id="CKZHbkeZ0Yq8w7-7omY6-140" value="" style="group" vertex="1" connectable="0" parent="1">
          <mxGeometry x="910" y="-660" width="325" height="255" as="geometry" />
        </mxCell>
        <mxCell id="CKZHbkeZ0Yq8w7-7omY6-141" value="" style="aspect=fixed;pointerEvents=1;shadow=0;dashed=0;html=1;strokeColor=none;labelPosition=center;verticalLabelPosition=bottom;verticalAlign=top;align=center;fillColor=#00188D;shape=mxgraph.azure.computer" vertex="1" parent="CKZHbkeZ0Yq8w7-7omY6-140">
          <mxGeometry x="140" y="210" width="50" height="45" as="geometry" />
        </mxCell>
        <mxCell id="CKZHbkeZ0Yq8w7-7omY6-142" value="" style="aspect=fixed;pointerEvents=1;shadow=0;dashed=0;html=1;strokeColor=none;labelPosition=center;verticalLabelPosition=bottom;verticalAlign=top;align=center;fillColor=#00188D;shape=mxgraph.azure.computer" vertex="1" parent="CKZHbkeZ0Yq8w7-7omY6-140">
          <mxGeometry x="275" y="102.5" width="50" height="45" as="geometry" />
        </mxCell>
        <mxCell id="CKZHbkeZ0Yq8w7-7omY6-143" style="edgeStyle=orthogonalEdgeStyle;rounded=0;orthogonalLoop=1;jettySize=auto;html=1;exitX=0.5;exitY=0;exitDx=0;exitDy=0;exitPerimeter=0;" edge="1" parent="CKZHbkeZ0Yq8w7-7omY6-140" source="CKZHbkeZ0Yq8w7-7omY6-144">
          <mxGeometry relative="1" as="geometry">
            <mxPoint x="170" y="10" as="targetPoint" />
          </mxGeometry>
        </mxCell>
        <mxCell id="CKZHbkeZ0Yq8w7-7omY6-144" value="" style="aspect=fixed;pointerEvents=1;shadow=0;dashed=0;html=1;strokeColor=none;labelPosition=center;verticalLabelPosition=bottom;verticalAlign=top;align=center;fillColor=#00188D;shape=mxgraph.azure.computer" vertex="1" parent="CKZHbkeZ0Yq8w7-7omY6-140">
          <mxGeometry x="140" width="50" height="45" as="geometry" />
        </mxCell>
        <mxCell id="CKZHbkeZ0Yq8w7-7omY6-145" value="" style="aspect=fixed;pointerEvents=1;shadow=0;dashed=0;html=1;strokeColor=none;labelPosition=center;verticalLabelPosition=bottom;verticalAlign=top;align=center;fillColor=#00188D;shape=mxgraph.azure.computer" vertex="1" parent="CKZHbkeZ0Yq8w7-7omY6-140">
          <mxGeometry y="102.5" width="50" height="45" as="geometry" />
        </mxCell>
        <mxCell id="CKZHbkeZ0Yq8w7-7omY6-147" value="" style="shape=singleArrow;direction=west;whiteSpace=wrap;html=1;" vertex="1" parent="CKZHbkeZ0Yq8w7-7omY6-140">
          <mxGeometry x="60" y="108.75" width="70" height="32.5" as="geometry" />
        </mxCell>
        <mxCell id="CKZHbkeZ0Yq8w7-7omY6-148" value="" style="shape=singleArrow;whiteSpace=wrap;html=1;" vertex="1" parent="CKZHbkeZ0Yq8w7-7omY6-140">
          <mxGeometry x="200" y="105" width="70" height="40" as="geometry" />
        </mxCell>
        <mxCell id="CKZHbkeZ0Yq8w7-7omY6-149" value="" style="shape=flexArrow;endArrow=classic;html=1;entryX=0.5;entryY=1;entryDx=0;entryDy=0;entryPerimeter=0;exitX=0.5;exitY=0;exitDx=0;exitDy=0;exitPerimeter=0;" edge="1" parent="CKZHbkeZ0Yq8w7-7omY6-140" target="CKZHbkeZ0Yq8w7-7omY6-144">
          <mxGeometry width="50" height="50" relative="1" as="geometry">
            <mxPoint x="165" y="90" as="sourcePoint" />
            <mxPoint x="-10" y="-30" as="targetPoint" />
          </mxGeometry>
        </mxCell>
        <mxCell id="CKZHbkeZ0Yq8w7-7omY6-150" value="" style="shape=flexArrow;endArrow=classic;html=1;entryX=0.5;entryY=0;entryDx=0;entryDy=0;entryPerimeter=0;exitX=0.5;exitY=1;exitDx=0;exitDy=0;exitPerimeter=0;" edge="1" parent="CKZHbkeZ0Yq8w7-7omY6-140" target="CKZHbkeZ0Yq8w7-7omY6-141">
          <mxGeometry width="50" height="50" relative="1" as="geometry">
            <mxPoint x="165" y="160" as="sourcePoint" />
            <mxPoint x="-10" y="-30" as="targetPoint" />
          </mxGeometry>
        </mxCell>
        <mxCell id="CKZHbkeZ0Yq8w7-7omY6-134" value="" style="group" vertex="1" connectable="0" parent="CKZHbkeZ0Yq8w7-7omY6-140">
          <mxGeometry x="120" y="92.5" width="100" height="70" as="geometry" />
        </mxCell>
        <mxCell id="CKZHbkeZ0Yq8w7-7omY6-135" value="" style="html=1;whiteSpace=wrap;shape=isoCube2;backgroundOutline=1;isoAngle=15;" vertex="1" parent="CKZHbkeZ0Yq8w7-7omY6-134">
          <mxGeometry width="42.85714285714286" height="42" as="geometry" />
        </mxCell>
        <mxCell id="CKZHbkeZ0Yq8w7-7omY6-136" value="" style="html=1;whiteSpace=wrap;shape=isoCube2;backgroundOutline=1;isoAngle=15;" vertex="1" parent="CKZHbkeZ0Yq8w7-7omY6-134">
          <mxGeometry x="14.285714285714286" y="7" width="42.85714285714286" height="42" as="geometry" />
        </mxCell>
        <mxCell id="CKZHbkeZ0Yq8w7-7omY6-137" value="" style="html=1;whiteSpace=wrap;shape=isoCube2;backgroundOutline=1;isoAngle=15;" vertex="1" parent="CKZHbkeZ0Yq8w7-7omY6-134">
          <mxGeometry x="28.571428571428573" y="14" width="42.85714285714286" height="42" as="geometry" />
        </mxCell>
        <mxCell id="CKZHbkeZ0Yq8w7-7omY6-138" value="" style="html=1;whiteSpace=wrap;shape=isoCube2;backgroundOutline=1;isoAngle=15;" vertex="1" parent="CKZHbkeZ0Yq8w7-7omY6-134">
          <mxGeometry x="42.85714285714286" y="21" width="42.85714285714286" height="42" as="geometry" />
        </mxCell>
        <mxCell id="CKZHbkeZ0Yq8w7-7omY6-153" value="&lt;font style=&quot;font-size: 16px&quot;&gt;A transaction&lt;br&gt;&amp;nbsp;is initiated&lt;/font&gt;" style="text;html=1;align=center;verticalAlign=middle;resizable=0;points=[];autosize=1;" vertex="1" parent="1">
          <mxGeometry x="375" y="-750" width="110" height="40" as="geometry" />
        </mxCell>
        <mxCell id="CKZHbkeZ0Yq8w7-7omY6-154" value="&lt;font style=&quot;font-size: 16px&quot;&gt;Data is recorded&lt;br&gt;in the block&lt;/font&gt;" style="text;html=1;align=center;verticalAlign=middle;resizable=0;points=[];autosize=1;" vertex="1" parent="1">
          <mxGeometry x="555" y="-750" width="130" height="40" as="geometry" />
        </mxCell>
        <mxCell id="CKZHbkeZ0Yq8w7-7omY6-155" value="" style="endArrow=classic;html=1;entryX=0;entryY=0.5;entryDx=0;entryDy=0;entryPerimeter=0;exitX=1;exitY=0.5;exitDx=0;exitDy=0;exitPerimeter=0;" edge="1" parent="1" source="CKZHbkeZ0Yq8w7-7omY6-102" target="CKZHbkeZ0Yq8w7-7omY6-103">
          <mxGeometry width="50" height="50" relative="1" as="geometry">
            <mxPoint x="620" y="-610" as="sourcePoint" />
            <mxPoint x="670" y="-660" as="targetPoint" />
          </mxGeometry>
        </mxCell>
        <mxCell id="CKZHbkeZ0Yq8w7-7omY6-156" value="" style="endArrow=classic;html=1;entryX=-0.02;entryY=0.322;entryDx=0;entryDy=0;entryPerimeter=0;exitX=1;exitY=0.5;exitDx=0;exitDy=0;exitPerimeter=0;" edge="1" parent="1" source="CKZHbkeZ0Yq8w7-7omY6-103" target="CKZHbkeZ0Yq8w7-7omY6-113">
          <mxGeometry width="50" height="50" relative="1" as="geometry">
            <mxPoint x="620" y="-610" as="sourcePoint" />
            <mxPoint x="670" y="-660" as="targetPoint" />
          </mxGeometry>
        </mxCell>
        <mxCell id="CKZHbkeZ0Yq8w7-7omY6-158" value="" style="endArrow=classic;html=1;exitX=0.013;exitY=0.2;exitDx=0;exitDy=0;exitPerimeter=0;" edge="1" parent="1" source="CKZHbkeZ0Yq8w7-7omY6-157">
          <mxGeometry width="50" height="50" relative="1" as="geometry">
            <mxPoint x="550" y="-600" as="sourcePoint" />
            <mxPoint x="480" y="-560" as="targetPoint" />
          </mxGeometry>
        </mxCell>
        <mxCell id="CKZHbkeZ0Yq8w7-7omY6-160" value="" style="endArrow=classic;html=1;entryX=0;entryY=0.5;entryDx=0;entryDy=0;entryPerimeter=0;" edge="1" parent="1" target="CKZHbkeZ0Yq8w7-7omY6-91">
          <mxGeometry width="50" height="50" relative="1" as="geometry">
            <mxPoint x="590" y="-540" as="sourcePoint" />
            <mxPoint x="670" y="-670" as="targetPoint" />
          </mxGeometry>
        </mxCell>
        <mxCell id="CKZHbkeZ0Yq8w7-7omY6-161" value="&lt;font style=&quot;font-size: 16px&quot;&gt;The block is added to the chain&lt;/font&gt;" style="text;html=1;align=center;verticalAlign=middle;resizable=0;points=[];autosize=1;" vertex="1" parent="1">
          <mxGeometry x="600" y="-470" width="240" height="20" as="geometry" />
        </mxCell>
        <mxCell id="CKZHbkeZ0Yq8w7-7omY6-162" value="" style="endArrow=classic;html=1;entryX=0;entryY=0.5;entryDx=0;entryDy=0;entryPerimeter=0;" edge="1" parent="1">
          <mxGeometry width="50" height="50" relative="1" as="geometry">
            <mxPoint x="820" y="-533" as="sourcePoint" />
            <mxPoint x="900" y="-533" as="targetPoint" />
          </mxGeometry>
        </mxCell>
        <mxCell id="CKZHbkeZ0Yq8w7-7omY6-163" value="&lt;font style=&quot;font-size: 16px&quot;&gt;Updated blockchain &lt;br&gt;is distributed&lt;/font&gt;" style="text;html=1;align=center;verticalAlign=middle;resizable=0;points=[];autosize=1;" vertex="1" parent="1">
          <mxGeometry x="870" y="-500" width="160" height="40" as="geometry" />
        </mxCell>
      </root>
    </mxGraphModel>
  </diagram>
</mxfile>
